<?xml version="1.0" encoding="UTF-8" standalone="no"?>
<!-- Created with Inkscape (http://www.inkscape.org/) -->

<svg
   version="1.1"
   id="svg1"
   width="688"
   height="688"
   viewBox="0 0 688 688"
   sodipodi:docname="bishop-black.svg"
   inkscape:version="1.3 (0e150ed6c4, 2023-07-21)"
   xmlns:inkscape="http://www.inkscape.org/namespaces/inkscape"
   xmlns:sodipodi="http://sodipodi.sourceforge.net/DTD/sodipodi-0.dtd"
   xmlns="http://www.w3.org/2000/svg"
   xmlns:svg="http://www.w3.org/2000/svg">
  <defs
     id="defs1">
    <inkscape:path-effect
       effect="fillet_chamfer"
       id="path-effect9"
       is_visible="true"
       lpeversion="1"
       nodesatellites_param="F,0,0,1,0,0,0,1 @ F,0,0,1,0,0,0,1 @ F,0,0,1,0,0,0,1 @ F,0,0,1,0,0,0,1 @ F,0,0,1,0,0,0,1 @ F,0,0,1,0,0,0,1 @ F,0,0,1,0,0,0,1 @ F,0,0,1,0,25.226774,0,1 @ F,0,1,1,0,25.226774,0,1 @ F,0,1,1,0,25.226774,0,1 @ F,0,1,1,0,25.226774,0,1 @ F,0,0,1,0,0,0,1 @ F,0,0,1,0,0,0,1 @ F,0,0,1,0,0,0,1 @ F,0,0,1,0,0,0,1 @ F,0,0,1,0,0,0,1 @ F,0,0,1,0,0,0,1 @ F,0,0,1,0,0,0,1 @ F,0,0,1,0,0,0,1"
       radius="0"
       unit="px"
       method="auto"
       mode="F"
       chamfer_steps="1"
       flexible="false"
       use_knot_distance="true"
       apply_no_radius="true"
       apply_with_radius="true"
       only_selected="false"
       hide_knots="false" />
    <inkscape:path-effect
       effect="mirror_symmetry"
       start_point="345.26437,380.5868"
       end_point="345.26437,588.33252"
       center_point="345.26437,484.45966"
       id="path-effect3"
       is_visible="true"
       lpeversion="1.2"
       lpesatellites=""
       mode="free"
       discard_orig_path="false"
       fuse_paths="false"
       oposite_fuse="false"
       split_items="true"
       split_open="false"
       link_styles="false" />
  </defs>
  <sodipodi:namedview
     id="namedview1"
     pagecolor="#ffffff"
     bordercolor="#000000"
     borderopacity="0.25"
     inkscape:showpageshadow="2"
     inkscape:pageopacity="0.0"
     inkscape:pagecheckerboard="0"
     inkscape:deskcolor="#d1d1d1"
     inkscape:zoom="1"
     inkscape:cx="-210"
     inkscape:cy="461"
     inkscape:window-width="3840"
     inkscape:window-height="1878"
     inkscape:window-x="-11"
     inkscape:window-y="-11"
     inkscape:window-maximized="1"
     inkscape:current-layer="g1" />
  <g
     inkscape:groupmode="layer"
     inkscape:label="Image"
     id="g1"
     style="display:inline">
    <path
       id="path2"
       style="display:inline;fill:#575452;fill-opacity:1;stroke:none;stroke-width:10;stroke-dasharray:none;stroke-opacity:1"
       d="m 320.24219,80.080078 c -15.64864,0.0012 -9.14249,19.79711 -9.58985,20.179692 -2.94067,2.44278 -6.10338,5.55882 -11.08007,9.64453 -11.85132,9.72955 -23.78193,29.80447 -17.47461,54.09179 3.22727,12.85069 12.60067,23.51708 25.7832,29.33985 -41.46323,16.91344 -70.69714,57.60784 -70.69727,105.15234 0.08,39.83703 21.13706,76.08762 55.31446,96.55469 l -0.64063,0.47851 c -44.55573,33.68086 -102.06916,78.08893 -108.71094,199.35157 -0.76184,13.90945 10.66336,25.21484 24.59571,25.21484 h 117.70703 25.33398 142.93164 c 13.93235,0 25.35754,-11.30528 24.59571,-25.21484 C 511.66894,473.61056 454.15726,429.20232 409.60156,395.52148 l -1.13476,-0.73632 c 34.17948,-20.46646 55.72646,-56.45836 55.80664,-96.29688 -1.6e-4,-57.13649 -40.72275,-103.20848 -95.65625,-111.16016 12.61647,-8.34157 17.0977,-19.70282 19.42187,-29.74218 2.56863,-11.09529 -3.9073,-45.11831 -18.2832,-48.33008 -7.68533,0.15561 -33.60493,47.67258 -40.32031,43.52539 -6.16962,-3.81014 -7.90124,-5.0528 -11.56055,-7.44336 -5.11333,-3.34046 32.95869,-46.218034 26.24219,-47.093749 -3.0382,-0.779475 -11.40012,0.548815 -11.00977,-1.529297 -1.11875,-7.651932 -0.38885,-18.13561 -12.86523,-16.634766 z"
       sodipodi:nodetypes="ccscccccssccssccccscssccc"
       inkscape:label="body"
       sodipodi:insensitive="true" />
    <path
       style="display:inline;fill:#464342;fill-opacity:1;stroke:none;stroke-width:10;stroke-linecap:butt;stroke-dasharray:none;stroke-opacity:1"
       d="m 434,229.75 c 5.16801,12.34929 62.66783,160.52026 -148.5,172 7.64119,64.40451 123.16997,12.83897 229,161.75 -9.14086,-71.28275 -51.76744,-119.73432 -102,-163 l 50,-69 c -3.05091,-35.2004 2.35907,-78.56432 -28.5,-101.75 z"
       id="path10"
       inkscape:label="shadow body"
       sodipodi:nodetypes="cccccc" />
    <path
       style="display:inline;fill:#464342;fill-opacity:1;stroke:none;stroke-width:10;stroke-linecap:butt;stroke-dasharray:none;stroke-opacity:1"
       d="m 378.31685,122.46551 c 8.11364,45.45704 -23.86049,52.87725 -50.2193,60.67515 l 46.66904,6.36396 16.26346,-37.47666 c -4.51234,-13.11741 4.08702,-21.71127 -12.7132,-29.56245 z"
       id="path11"
       inkscape:label="shadow hat"
       sodipodi:nodetypes="ccccc" />
    <path
       style="display:inline;fill:none;stroke:#000000;stroke-width:10;stroke-linecap:butt;stroke-dasharray:none;stroke-opacity:1"
       d="m 288.5,395 c 41.87785,9.57877 82.9542,8.73796 123.5,1"
       id="path3"
       sodipodi:nodetypes="cc"
       inkscape:label="body seperator" />
    <path
       style="display:inline;fill:none;fill-opacity:1;stroke:#000000;stroke-width:10;stroke-linecap:butt;stroke-dasharray:none;stroke-opacity:1"
       d="m 305,193.75 c 22.03045,-6.24039 44.30401,-9.07717 67,-6"
       id="path9"
       sodipodi:nodetypes="cc"
       inkscape:label="hat seperator" />
    <path
       style="display:inline;fill:none;fill-opacity:1;stroke:#000000;stroke-width:10;stroke-linecap:round;stroke-dasharray:none;stroke-opacity:1"
       d="m 368.5,276.5 c 12.31651,19.4143 10.28753,53.79603 -3.375,61 -12.47914,7.73804 -31.92826,5.11113 -40.625,-2.5 -22.27133,-19.4912 -3.63603,-59.76074 20.5,-71"
       id="path8"
       sodipodi:nodetypes="ccsc"
       inkscape:label="nose" />
    <path
       style="display:inline;fill:none;fill-opacity:1;stroke:#000000;stroke-width:10;stroke-linecap:round;stroke-dasharray:none;stroke-opacity:1"
       d="m 302.5,373.5 c 27,-6.80297 54,-9.35164 81,-9.5"
       id="path7"
       sodipodi:nodetypes="cc"
       inkscape:label="mouth" />
    <circle
       style="fill:#000000;fill-opacity:1;stroke:none;stroke-width:13.3333;stroke-linecap:round;stroke-dasharray:none;stroke-opacity:1"
       id="path6"
       cx="315.72318"
       cy="258.44754"
       r="9.8994951"
       inkscape:label="eye 1" />
    <circle
       style="fill:#000000;fill-opacity:1;stroke:none;stroke-width:13.3333;stroke-linecap:round;stroke-dasharray:none;stroke-opacity:1"
       id="circle6"
       cx="379.71634"
       cy="253.14424"
       r="9.8994951"
       inkscape:label="eye 2" />
    <path
       style="display:inline;fill:none;stroke:#000000;stroke-width:10;stroke-linecap:round;stroke-dasharray:none;stroke-opacity:1"
       d="M 417.29351,248.54803 C 410.12619,238.80818 402.0009,229.59085 387.59502,223.7993"
       id="path4"
       sodipodi:nodetypes="cc"
       inkscape:label="eyebrow 1" />
    <path
       style="display:inline;fill:none;stroke:#000000;stroke-width:10;stroke-linecap:round;stroke-dasharray:none;stroke-opacity:1"
       d="m 277.0212,245.54283 c 7.00827,-8.66786 16.54853,-13.53775 26.33973,-18.03122"
       id="path5"
       sodipodi:nodetypes="cc"
       inkscape:label="eyebrow 2" />
    <path
       id="path1"
       style="display:inline;fill:none;stroke:#000000;stroke-width:10;stroke-dasharray:none;stroke-opacity:1"
       d="m 320.24219,80.830078 c -15.64864,0.0012 -9.14249,19.797112 -9.58985,20.179692 -2.94067,2.44278 -6.10338,5.55882 -11.08007,9.64453 -11.85132,9.72955 -23.78193,29.80447 -17.47461,54.09179 3.22727,12.85069 12.60067,23.51708 25.7832,29.33985 -41.46323,16.91344 -70.69714,57.60784 -70.69727,105.15234 0.08,39.83703 21.13706,76.08762 55.31446,96.55469 l -0.64063,0.47851 c -44.55573,33.68086 -102.06916,78.08893 -108.71094,199.35157 -0.76184,13.90945 10.66336,25.21484 24.59571,25.21484 h 117.70703 25.33398 142.93164 c 13.93235,0 25.35754,-11.30528 24.59571,-25.21484 C 511.66894,474.36056 454.15726,429.95232 409.60156,396.27148 l -1.13476,-0.73632 c 34.17948,-20.46646 55.72646,-56.45836 55.80664,-96.29688 -1.6e-4,-57.13649 -40.72275,-103.20848 -95.65625,-111.16016 12.61647,-8.34157 17.0977,-19.70282 19.42187,-29.74218 2.56863,-11.09529 -3.9073,-45.11831 -18.2832,-48.33008 -7.68533,0.15561 -33.60493,47.67258 -40.32031,43.52539 -6.16962,-3.81014 -7.90124,-5.0528 -11.56055,-7.44336 -5.11333,-3.34046 32.95869,-46.218034 26.24219,-47.093749 -3.0382,-0.779475 -11.40012,0.548815 -11.00977,-1.529297 -1.11875,-7.651932 -0.38885,-18.13561 -12.86523,-16.634766 z"
       sodipodi:nodetypes="ccscccccssccssccccscssccc"
       inkscape:label="body stroke"
       sodipodi:insensitive="true" />
  </g>
</svg>
