<?xml version="1.0" encoding="UTF-8" standalone="no"?>
<!-- Created with Inkscape (http://www.inkscape.org/) -->

<svg
   version="1.1"
   id="svg1"
   width="688"
   height="688"
   viewBox="0 0 688 688"
   sodipodi:docname="child-pawn-black.svg"
   inkscape:version="1.3 (0e150ed6c4, 2023-07-21)"
   xml:space="preserve"
   xmlns:inkscape="http://www.inkscape.org/namespaces/inkscape"
   xmlns:sodipodi="http://sodipodi.sourceforge.net/DTD/sodipodi-0.dtd"
   xmlns="http://www.w3.org/2000/svg"
   xmlns:svg="http://www.w3.org/2000/svg"><defs
     id="defs1"><inkscape:path-effect
       effect="fillet_chamfer"
       id="path-effect11"
       is_visible="true"
       lpeversion="1"
       nodesatellites_param="F,0,0,1,0,0,0,1 @ F,0,0,1,0,3,0,1 @ F,0,0,1,0,3,0,1 @ F,0,0,1,0,3,0,1"
       radius="3"
       unit="px"
       method="auto"
       mode="F"
       chamfer_steps="1"
       flexible="false"
       use_knot_distance="true"
       apply_no_radius="true"
       apply_with_radius="true"
       only_selected="false"
       hide_knots="false" /><inkscape:path-effect
       effect="fillet_chamfer"
       id="path-effect9"
       is_visible="true"
       lpeversion="1"
       nodesatellites_param="F,0,0,1,0,0,0,1 @ F,0,0,1,0,3,0,1 @ F,0,0,1,0,3,0,1 @ F,0,0,1,0,3,0,1"
       radius="3"
       unit="px"
       method="auto"
       mode="F"
       chamfer_steps="1"
       flexible="false"
       use_knot_distance="true"
       apply_no_radius="true"
       apply_with_radius="true"
       only_selected="false"
       hide_knots="false" /><inkscape:path-effect
       effect="fillet_chamfer"
       id="path-effect2"
       is_visible="true"
       lpeversion="1"
       nodesatellites_param="F,0,0,1,0,0,0,1 @ F,0,1,1,0,24.707098,0,1 @ F,0,0,1,0,24.707098,0,1 @ F,0,0,1,0,0,0,1"
       radius="0"
       unit="px"
       method="auto"
       mode="F"
       chamfer_steps="1"
       flexible="false"
       use_knot_distance="true"
       apply_no_radius="true"
       apply_with_radius="true"
       only_selected="false"
       hide_knots="false" /><inkscape:path-effect
       effect="mirror_symmetry"
       start_point="350.07185,161.90709"
       end_point="350.07185,623.65771"
       center_point="350.07185,392.7824"
       id="path-effect1"
       is_visible="true"
       lpeversion="1.2"
       lpesatellites=""
       mode="free"
       discard_orig_path="false"
       fuse_paths="false"
       oposite_fuse="false"
       split_items="true"
       split_open="false"
       link_styles="false" /></defs><sodipodi:namedview
     id="namedview1"
     pagecolor="#ffffff"
     bordercolor="#000000"
     borderopacity="0.25"
     inkscape:showpageshadow="2"
     inkscape:pageopacity="0.0"
     inkscape:pagecheckerboard="0"
     inkscape:deskcolor="#d1d1d1"
     inkscape:zoom="4"
     inkscape:cx="324.875"
     inkscape:cy="412"
     inkscape:window-width="3840"
     inkscape:window-height="1878"
     inkscape:window-x="-11"
     inkscape:window-y="-11"
     inkscape:window-maximized="1"
     inkscape:current-layer="g1" /><g
     inkscape:groupmode="layer"
     inkscape:label="Image"
     id="g1"
     style="display:inline"><path
       id="path1"
       style="fill:#575452;fill-opacity:1;stroke:none;stroke-width:6.60955;stroke-opacity:1"
       inkscape:label="body"
       d="m 345.75096,317.51991 c -10.25557,-3.1e-4 -12.79467,6.48403 -12.72466,14.10079 -45.13394,3.56343 -87.14979,40.6467 -46.27456,135.29731 -22.36532,43.07486 -48.18889,84.0454 -45.83435,142.16717 0.36495,9.00879 8.67321,16.26825 17.69215,16.26825 h 159.44234 c 9.01895,0 17.32723,-7.25941 17.69216,-16.26825 2.35433,-58.12172 -23.47035,-99.09233 -45.83565,-142.16717 36.89096,-85.42462 8.90337,-121.72729 -30.59754,-132.95686 0.42611,-13.23453 -2.62004,-16.28524 -13.55989,-16.44124 z"
       sodipodi:insensitive="true"
       sodipodi:nodetypes="cccssssccc" /><path
       style="fill:#464342;fill-opacity:1;stroke:none;stroke-width:6.61;stroke-linecap:butt;stroke-dasharray:none;stroke-opacity:1"
       d="m 402.15926,374.31056 c -11.78563,99.31555 -76.31043,78.53288 -115.56838,93.55534 15.1689,49.06713 106.70082,42.65053 145.0501,95.52079 l -41.66751,-98.27242 c 24.22592,-41.09671 14.75025,-64.09442 12.18579,-90.80371 z"
       id="path7"
       inkscape:label="shadow"
       sodipodi:nodetypes="ccccc" /><path
       style="fill:none;fill-opacity:1;stroke:#000000;stroke-width:10;stroke-linecap:butt;stroke-dasharray:none;stroke-opacity:1"
       d="m 286.78744,467.8659 c 34.64537,3.50037 69.06456,3.83417 103.18603,0"
       id="path8"
       sodipodi:nodetypes="cc"
       inkscape:label="body seperator" /><path
       style="fill:none;fill-opacity:1;stroke:#000000;stroke-width:10;stroke-linecap:butt;stroke-dasharray:none;stroke-opacity:1"
       d="m 332.14016,331.62196 c 9.01527,0.0753 18.8593,0.20316 27.61454,2.35853"
       id="path5"
       sodipodi:nodetypes="cc"
       inkscape:label="hat seperator" /><ellipse
       style="fill:#000000;fill-opacity:1;stroke:none;stroke-width:7.99755;stroke-opacity:1"
       id="path2"
       cx="476.64453"
       cy="209.9798"
       rx="8.5614929"
       ry="10.939687"
       transform="rotate(22)"
       inkscape:label="eye 1" /><ellipse
       style="fill:#000000;fill-opacity:1;stroke:none;stroke-width:7.99755;stroke-opacity:1"
       id="ellipse2"
       cx="429.66278"
       cy="230.24452"
       rx="8.5614929"
       ry="10.939687"
       transform="rotate(22)"
       inkscape:label="eye 2" /><path
       style="fill:none;fill-opacity:1;stroke:#000000;stroke-width:7;stroke-linecap:round;stroke-dasharray:none;stroke-opacity:1"
       d="m 347.14691,390.32095 c 1.20256,10.6916 -9.77701,11.62638 -13.00124,10.94931 -8.28944,-3.24296 -6.03621,-12.90049 1.912,-17.18281"
       id="path3"
       sodipodi:nodetypes="ccc"
       inkscape:label="nose" /><path
       id="path6"
       style="fill:none;fill-opacity:1;stroke:#000000;stroke-width:10;stroke-dasharray:none;stroke-opacity:1"
       inkscape:label="body stroke"
       d="m 345.75096,317.51991 c -10.25557,-3.1e-4 -12.79467,6.48403 -12.72466,14.10079 -45.13394,3.56343 -87.14979,40.6467 -46.27456,135.29731 -22.36532,43.07486 -48.18889,84.0454 -45.83435,142.16717 0.36495,9.00879 8.67321,16.26825 17.69215,16.26825 h 159.44234 c 9.01895,0 17.32723,-7.25941 17.69216,-16.26825 2.35433,-58.12172 -23.47035,-99.09233 -45.83565,-142.16717 36.89096,-85.42462 8.90337,-121.72729 -30.59754,-132.95686 0.42611,-13.23453 -2.62004,-16.28524 -13.55989,-16.44124 z"
       sodipodi:insensitive="true"
       sodipodi:nodetypes="cccssssccc" /><g
       id="g9"
       inkscape:label="mouth"
       transform="translate(-8,12)"><path
         style="fill:#d3d3d6;stroke:#000000;stroke-width:10;stroke-linecap:round;stroke-dasharray:none;stroke-opacity:1"
         d="m 316.07673,406.76318 c 19.24275,4.21425 39.21862,2.56349 59.39697,-0.70711"
         id="path4"
         sodipodi:nodetypes="cc"
         inkscape:label="mouth" /><path
         style="fill:none;stroke:#000000;stroke-width:7;stroke-linecap:round;stroke-dasharray:none;stroke-opacity:1"
         d="m 354.61405,411.18259 0.55347,10.79253 a 3.1164717,3.1164717 43.155226 0 0 3.15338,2.95659 l 7.43555,-0.0978 a 2.5300254,2.5300254 129.38847 0 0 2.45462,-2.98953 l -2.46009,-13.3134"
         id="path9"
         inkscape:path-effect="#path-effect9"
         inkscape:original-d="m 354.61405,411.18259 0.70711,13.78859 13.43503,-0.17678 -3.00521,-16.26346"
         inkscape:label="teeth 1" /><path
         style="fill:none;stroke:#000000;stroke-width:7;stroke-linecap:round;stroke-dasharray:none;stroke-opacity:1"
         d="m 354.61405,411.18259 0.55347,10.79253 a 3.1164717,3.1164717 43.155226 0 0 3.15338,2.95659 l 7.43555,-0.0978 a 2.5300254,2.5300254 129.38847 0 0 2.45462,-2.98953 l -2.46009,-13.3134"
         id="path10"
         inkscape:path-effect="#path-effect11"
         inkscape:original-d="m 354.61405,411.18259 0.70711,13.78859 13.43503,-0.17678 -3.00521,-16.26346"
         inkscape:label="teeth 2"
         transform="rotate(15,350.18342,333.56392)" /></g></g></svg>
