<?xml version="1.0" encoding="UTF-8" standalone="no"?>
<!-- Created with Inkscape (http://www.inkscape.org/) -->

<svg
   version="1.1"
   id="svg1"
   width="688"
   height="688"
   viewBox="0 0 688 688"
   sodipodi:docname="rook-black.svg"
   xml:space="preserve"
   inkscape:version="1.3 (0e150ed6c4, 2023-07-21)"
   xmlns:inkscape="http://www.inkscape.org/namespaces/inkscape"
   xmlns:sodipodi="http://sodipodi.sourceforge.net/DTD/sodipodi-0.dtd"
   xmlns="http://www.w3.org/2000/svg"
   xmlns:svg="http://www.w3.org/2000/svg"><defs
     id="defs1"><inkscape:path-effect
       effect="fillet_chamfer"
       id="path-effect23"
       is_visible="true"
       lpeversion="1"
       nodesatellites_param="F,0,0,1,0,0,0,1 @ F,0,0,1,0,0,0,1 @ F,0,0,1,0,0,0,1 @ F,0,0,1,0,0,0,1"
       radius="0"
       unit="px"
       method="auto"
       mode="F"
       chamfer_steps="1"
       flexible="false"
       use_knot_distance="true"
       apply_no_radius="true"
       apply_with_radius="true"
       only_selected="false"
       hide_knots="false" /><inkscape:path-effect
       effect="roughen"
       id="path-effect19"
       is_visible="true"
       lpeversion="1.2"
       global_randomize="1;1"
       displace_x="0;1"
       displace_y="0;1"
       method="size"
       max_segment_size="0.606"
       segments="2"
       handles="along"
       shift_nodes="true"
       fixed_displacement="false"
       spray_tool_friendly="false" /><inkscape:path-effect
       effect="roughen"
       id="path-effect10"
       is_visible="true"
       lpeversion="1.2"
       global_randomize="4;1"
       displace_x="3.94;1"
       displace_y="0.83;1"
       method="segments"
       max_segment_size="0.689682"
       segments="2"
       handles="along"
       shift_nodes="true"
       fixed_displacement="false"
       spray_tool_friendly="false" /><inkscape:path-effect
       effect="roughen"
       id="path-effect9"
       is_visible="true"
       lpeversion="1.2"
       global_randomize="1;1"
       displace_x="10;1"
       displace_y="10;1"
       method="size"
       max_segment_size="1.38349"
       segments="2"
       handles="along"
       shift_nodes="true"
       fixed_displacement="false"
       spray_tool_friendly="false" /><inkscape:path-effect
       effect="fillet_chamfer"
       id="path-effect24"
       is_visible="true"
       lpeversion="1"
       nodesatellites_param="F,0,0,1,0,0,0,1 @ F,0,0,1,0,0,0,1 @ F,0,0,1,0,17.602022,0,1 @ F,0,0,1,0,17.602022,0,1 @ F,0,0,1,0,17.602022,0,1 @ F,0,0,1,0,17.602022,0,1 @ F,0,0,1,0,0,0,1 @ F,0,0,1,0,0,0,1"
       radius="0"
       unit="px"
       method="auto"
       mode="F"
       chamfer_steps="1"
       flexible="false"
       use_knot_distance="true"
       apply_no_radius="true"
       apply_with_radius="true"
       only_selected="false"
       hide_knots="false" /><inkscape:path-effect
       effect="fillet_chamfer"
       id="path-effect22"
       is_visible="true"
       lpeversion="1"
       nodesatellites_param="F,0,0,1,0,0,0,1 @ F,0,0,1,0,0,0,1 @ F,0,0,1,0,0,0,1 @ F,0,0,1,0,0,0,1 @ F,0,0,1,0,0,0,1 @ F,0,1,1,0,7.4937226,0,1 @ F,0,0,1,0,7.4937226,0,1 @ F,0,0,1,0,0,0,1 @ F,0,0,1,0,0,0,1 @ F,0,0,1,0,0,0,1 @ F,0,0,1,0,0,0,1 @ F,0,0,1,0,0,0,1 @ F,0,0,1,0,0,0,1 @ F,0,0,1,0,0,0,1 @ F,0,0,1,0,0,0,1"
       radius="0"
       unit="px"
       method="auto"
       mode="F"
       chamfer_steps="1"
       flexible="false"
       use_knot_distance="true"
       apply_no_radius="true"
       apply_with_radius="true"
       only_selected="false"
       hide_knots="false" /><inkscape:path-effect
       effect="fillet_chamfer"
       id="path-effect18"
       is_visible="true"
       lpeversion="1"
       nodesatellites_param="F,0,0,1,0,0,0,1 @ F,0,0,1,0,0,0,1 @ F,0,0,1,0,0,0,1 @ F,0,0,1,0,0,0,1 @ F,0,0,1,0,0,0,1 @ F,0,1,1,0,7.4937226,0,1 @ F,0,0,1,0,7.4937226,0,1 @ F,0,0,1,0,0,0,1 @ F,0,0,1,0,0,0,1 @ F,0,0,1,0,0,0,1 @ F,0,0,1,0,0,0,1 @ F,0,0,1,0,0,0,1 @ F,0,0,1,0,0,0,1 @ F,0,0,1,0,0,0,1 @ F,0,0,1,0,0,0,1"
       radius="0"
       unit="px"
       method="auto"
       mode="F"
       chamfer_steps="1"
       flexible="false"
       use_knot_distance="true"
       apply_no_radius="true"
       apply_with_radius="true"
       only_selected="false"
       hide_knots="false" /></defs><sodipodi:namedview
     id="namedview1"
     pagecolor="#ffffff"
     bordercolor="#000000"
     borderopacity="0.25"
     inkscape:showpageshadow="2"
     inkscape:pageopacity="0.0"
     inkscape:pagecheckerboard="0"
     inkscape:deskcolor="#d1d1d1"
     inkscape:zoom="4.7558138"
     inkscape:cx="255.37165"
     inkscape:cy="543.12471"
     inkscape:window-width="3840"
     inkscape:window-height="1878"
     inkscape:window-x="-11"
     inkscape:window-y="-11"
     inkscape:window-maximized="1"
     inkscape:current-layer="g1" /><g
     inkscape:groupmode="layer"
     inkscape:label="Image"
     id="g1"><path
       id="path1"
       style="display:inline;fill:#575452;fill-opacity:1;stroke:none;stroke-width:10;stroke-dasharray:none;stroke-opacity:1"
       inkscape:label="body"
       d="m 213.80078,256.07812 -0.16797,313.33008 -69.17748,5.67726 -2.10269,58.87584 392.43874,2.31296 0.63081,-64.34283 -70.23078,-2.52323 V 256.07031 Z"
       sodipodi:nodetypes="ccccccccc"
       transform="translate(4.3766461,-16.388318)" /><path
       id="rect22"
       style="fill:#464342;stroke-width:8.72339;stroke-linejoin:round"
       inkscape:label="base shadow"
       transform="translate(-1.9184436,49.40527)"
       d="M 147.78299,555.11005 H 541.8569 v 16.51539 H 147.78299 Z" /><path
       style="fill:#464342;fill-opacity:1;stroke:none;stroke-width:10;stroke-linecap:butt;stroke-linejoin:round;stroke-opacity:1"
       d="M 322.34388,240.27108 C 488.32346,282.7835 416.7157,436.20542 434.49283,551.3661 l 36.53365,4.1121 -2.37892,-318.7755 z"
       id="path22"
       sodipodi:nodetypes="ccccc"
       inkscape:label="shadow" /><path
       style="fill:#000000;stroke:#000000;stroke-width:10;stroke-linecap:butt;stroke-linejoin:round;stroke-opacity:1"
       d="M 214.86936,553.00232 H 472.23855"
       id="path19"
       inkscape:label="body seperator" /><g
       id="g22"
       inkscape:label="crown"
       style="display:inline"
       transform="matrix(1.7397571,0.15220902,-0.15220902,1.7397571,-217.0918,-99.16868)"
       sodipodi:insensitive="true"><path
         id="path13"
         style="display:inline;fill:#575452;fill-opacity:1;stroke:none;stroke-width:7.85103;stroke-dasharray:none"
         d="m 316.07057,133.44869 h -36.32032 c -1.3339,0 -2.36341,-1.02749 -2.32558,-2.29549 1.48372,-49.734226 -45.29347,-37.944088 -47.83003,-15.02362 -0.13956,1.26111 -0.14014,3.31931 -0.1415,4.58783 l -0.0403,38.00138 a 7.4857711,7.4857711 45.030414 0 0 7.48576,7.49372 l 198.91427,0 a 7.4857711,7.4857711 134.96959 0 0 7.48576,-7.49372 l -0.0403,-38.00138 c -0.002,-1.26852 -0.002,-3.32672 -0.1415,-4.58783 -2.53656,-22.92044 -49.31374,-34.710634 -47.83002,15.02362 0.0379,1.26799 -0.99169,2.29549 -2.32559,2.29549 h -34.44085 c -5.70668,0 5.95859,-25.52906 -11.43317,-35.658065 -5.09247,-2.512473 -15.68074,-2.665438 -20.40716,1.581661 -11.53385,13.169084 -7.9912,34.076404 -10.60945,34.076404 z"
         sodipodi:nodetypes="ssssccccssssccss"
         inkscape:label="crown"
         transform="matrix(1.0175703,-0.08902586,0.08902586,1.0175703,-22.05283,24.213401)"
         inkscape:original-d="m 316.07057,133.44869 h -36.32032 c -1.3339,0 -2.36341,-1.02749 -2.32558,-2.29549 1.48372,-49.734226 -45.29347,-37.944088 -47.83003,-15.02362 -0.13956,1.26111 -0.14014,3.31931 -0.1415,4.58783 l -0.0483,45.4951 h 213.90171 l -0.0483,-45.4951 c -0.002,-1.26852 -0.002,-3.32672 -0.1415,-4.58783 -2.53656,-22.92044 -49.31374,-34.710634 -47.83002,15.02362 0.0379,1.26799 -0.99169,2.29549 -2.32559,2.29549 h -34.44085 c -5.70668,0 5.95859,-25.52906 -11.43317,-35.658065 -5.09247,-2.512473 -15.68074,-2.665438 -20.40716,1.581661 -11.53385,13.169084 -7.9912,34.076404 -10.60945,34.076404 z"
         inkscape:path-effect="#path-effect18" /><path
         style="display:inline;fill:#464342;fill-opacity:1;stroke:none;stroke-width:7"
         d="m 425.81212,85.405267 c 1.01513,26.602043 -14.42101,50.980663 -27.67535,71.240723 l 43.65941,-4.40071 c -5.52484,-27.46272 3.8091,-60.770889 -15.98406,-66.840013 z"
         id="path20"
         sodipodi:nodetypes="cccc"
         inkscape:label="shadow" /><path
         id="path21"
         style="display:inline;fill:none;fill-opacity:1;stroke:#000000;stroke-width:5.60577177;stroke-dasharray:none"
         d="m 316.07057,133.44869 h -36.32032 c -1.3339,0 -2.36341,-1.02749 -2.32558,-2.29549 1.48372,-49.734226 -45.29347,-37.944088 -47.83003,-15.02362 -0.13956,1.26111 -0.14014,3.31931 -0.1415,4.58783 l -0.0403,38.00138 a 7.4857711,7.4857711 45.030414 0 0 7.48576,7.49372 l 198.91427,0 a 7.4857711,7.4857711 134.96959 0 0 7.48576,-7.49372 l -0.0403,-38.00138 c -0.002,-1.26852 -0.002,-3.32672 -0.1415,-4.58783 -2.53656,-22.92044 -49.31374,-34.710634 -47.83002,15.02362 0.0379,1.26799 -0.99169,2.29549 -2.32559,2.29549 h -34.44085 c -5.70668,0 5.95859,-25.52906 -11.43317,-35.658065 -5.09247,-2.512473 -15.68074,-2.665438 -20.40716,1.581661 -11.53385,13.169084 -7.9912,34.076404 -10.60945,34.076404 z"
         sodipodi:nodetypes="ssssccccssssccss"
         inkscape:label="crown stroke"
         transform="matrix(1.0175703,-0.08902586,0.08902586,1.0175703,-22.05283,24.213401)"
         inkscape:original-d="m 316.07057,133.44869 h -36.32032 c -1.3339,0 -2.36341,-1.02749 -2.32558,-2.29549 1.48372,-49.734226 -45.29347,-37.944088 -47.83003,-15.02362 -0.13956,1.26111 -0.14014,3.31931 -0.1415,4.58783 l -0.0483,45.4951 h 213.90171 l -0.0483,-45.4951 c -0.002,-1.26852 -0.002,-3.32672 -0.1415,-4.58783 -2.53656,-22.92044 -49.31374,-34.710634 -47.83002,15.02362 0.0379,1.26799 -0.99169,2.29549 -2.32559,2.29549 h -34.44085 c -5.70668,0 5.95859,-25.52906 -11.43317,-35.658065 -5.09247,-2.512473 -15.68074,-2.665438 -20.40716,1.581661 -11.53385,13.169084 -7.9912,34.076404 -10.60945,34.076404 z"
         inkscape:path-effect="#path-effect22" /></g><g
       id="g2"
       inkscape:label="eye 1"><circle
         style="fill:#000000;fill-opacity:1;stroke:none;stroke-width:17.1053;stroke-linecap:round;stroke-dasharray:none;stroke-opacity:1"
         id="circle4"
         cx="352.27673"
         cy="337.95554"
         r="9.6643686"
         inkscape:label="eyeball" /><path
         style="fill:none;stroke:#000000;stroke-width:15;stroke-linecap:round;stroke-dasharray:none;stroke-opacity:1"
         d="m 352.45302,301.32159 36.12399,29.64173"
         id="path2"
         sodipodi:nodetypes="cc"
         inkscape:label="eyebrow" /></g><g
       id="g3"
       inkscape:label="eye 2"><path
         style="fill:none;stroke:#000000;stroke-width:15;stroke-linecap:round;stroke-dasharray:none;stroke-opacity:1"
         d="m 320.57701,301.32159 -36.12399,29.64173"
         id="path3"
         sodipodi:nodetypes="cc"
         inkscape:label="eyebrow" /><circle
         style="fill:#000000;fill-opacity:1;stroke:none;stroke-width:17.1053;stroke-linecap:round;stroke-dasharray:none;stroke-opacity:1"
         id="path4"
         cx="324.27673"
         cy="337.95554"
         r="9.6643686"
         inkscape:label="eyeball" /></g><path
       style="fill:none;stroke:#000000;stroke-width:10;stroke-linecap:round;stroke-linejoin:round;stroke-opacity:1"
       d="M 369.03021,383.00637 C 391.45327,504.28172 206.5664,414.51274 338.10423,361.59608"
       id="path5"
       sodipodi:nodetypes="cc"
       inkscape:label="nose" /><path
       id="Path 18"
       class="s0"
       d="m 317.61101,445.24609 c -1.93995,1.37029 -3.76933,3.69458 -5.76993,5.68754 -3.83705,3.82239 -6.79455,8.14942 -9.36562,11.75086 -2.15629,3.02043 -4.46934,5.0672 -4.46934,5.7973 0,1.93897 10.451,4.25521 11.80489,0.4643 0.7,-2.5 0.9,-2.6 6,-2 1.62635,0.20263 5.22566,-0.64078 6,-1.4 3.46742,-3.16224 4.71527,1.2677 8.7,-1 0.9874,-3.70275 1.55355,0.38371 5.86919,-1.43839 2.95427,-1.11226 0.71082,1.74639 5.83081,-1.26161 1.3,-0.6 3.5,-1 5,-1 3.68771,2.39665 4.76928,3.59119 7.46919,3.75379 2.27634,-1.03288 5.00454,0.86745 7.29731,0.90269 1.2958,2.91555 16.58237,7.15907 10.7335,-0.15648 -0.8841,-1.29817 -2.52775,-2.01555 -3.54802,-3.21588 -2.22929,-2.62272 -4.00764,-5.58705 -6.20597,-8.09172 -1.61909,-1.84472 -2.50462,-3.87254 -4.04861,-5.72611 -1.48239,-1.7796 -3.61825,-3.38694 -5.3974,-5.06629 -24.67099,3.99773 -30.09435,-1.43061 -35.9,2 z"
       sodipodi:nodetypes="csssccccccccccssscc"
       inkscape:label="mustache" /><path
       id="path24"
       style="display:inline;fill:none;fill-opacity:1;stroke:#000000;stroke-width:10;stroke-linecap:butt;stroke-dasharray:none;stroke-opacity:1"
       inkscape:label="body stroke"
       d="m 213.80078,254.07812 -0.16797,315.33008 h -56.41165 a 17.602022,17.602022 135 0 0 -17.60202,17.60202 v 33.76471 a 17.602022,17.602022 45 0 0 17.60202,17.60202 h 364.38385 a 17.602022,17.602022 135 0 0 17.60202,-17.60202 V 587.01022 A 17.602022,17.602022 45 0 0 521.60501,569.4082 h -56.4136 V 254.07031 Z"
       sodipodi:nodetypes="ccccccccc"
       inkscape:original-d="m 213.80078,254.07812 -0.16797,315.33008 h -74.01367 v 68.96875 H 539.20703 V 569.4082 H 465.19141 V 254.07031 Z"
       inkscape:path-effect="#path-effect24"
       transform="translate(4.3766461,-16.388318)"
       sodipodi:insensitive="true" /></g><style
     id="style1">&#10;		.s0 { fill: #020202 } &#10;	</style></svg>
