<svg version="1.2" xmlns="http://www.w3.org/2000/svg" viewBox="0 0 1080 1080" width="1080" height="1080">
	<title>Logo</title>
	<style>
		.s0 { fill: #000000 } 
		.s1 { fill: #7c7c7c } 
		.s2 { fill: #ffffff } 
	</style>
	<g id="Background">
        <rect width="100%" height="100%" fill="red"/>
		<path id="Path 0" class="s0" d="m303.8 126.8c-1.4 1.1-3.4 3-4.4 4.3-1 1.3-2.1 3.7-2.5 5.4-0.5 1.8 0.9 23.5 3.6 55 2.5 28.6 4.5 52.9 4.5 54 0 1.4-2.5 3.9-8.2 8-4.6 3.2-13.4 10.9-19.7 17-6.2 6-13.2 13.5-15.6 16.5-2.3 3-6.9 9.6-10.2 14.5-3.3 4.9-8.1 13.1-10.5 18-2.5 4.9-6.3 13.4-8.4 18.8l-3.9 9.7h-104.5v43h17v16h17v17h16v17c32.7 0 40 0.4 40 1 0 0.6-1.9 5.2-4.3 10.3-2.4 5-8.4 16-13.4 24.2-5 8.3-16.6 26.5-25.8 40.5-9.3 14-20.5 32.3-25 40.5-4.5 8.3-9.8 18.6-11.7 23-2 4.4-5 12-6.8 17-1.7 5-4 13-5.1 18-1.1 5-2.3 14-2.6 20-0.4 6.6-0.1 14.8 0.6 20.5 0.7 5.2 2.6 13.5 4.2 18.5 1.6 5 4.4 11.9 6.2 15.5 1.8 3.6 5.5 9.9 8.2 14 2.8 4.1 7.5 10.1 10.5 13.4 3 3.2 8.2 7.8 11.5 10.1 3.3 2.4 9.7 6.1 14.2 8.4 4.6 2.2 11.6 5.2 15.5 6.6 4 1.3 10.7 2.9 14.8 3.5l7.5 1.1c3.1 7.3 6 11.7 8.6 14.4 2.5 2.8 7.3 6.4 10.5 8.1 3.2 1.8 8.1 3.9 10.9 4.9 3.2 1 8.3 1.6 14 1.6 6.1 0 11.1-0.6 15.5-2 3.6-1.1 9.2-3.8 12.5-5.9 3.3-2.2 9.1-7.3 13-11.3 3.8-4.1 9.7-11.7 13.1-16.9 3.4-5.2 8.2-13.1 10.6-17.5 2.4-4.4 6.8-13.2 9.7-19.5 2.9-6.3 7.7-16.2 10.8-22 3-5.8 8.4-14.8 11.8-20 3.5-5.2 8-11.5 10.2-13.9 2.1-2.4 7.4-7.2 11.8-10.6 4.4-3.4 12.5-8.9 18-12.2 5.5-3.3 17.6-9.8 27-14.4 9.4-4.6 19.9-9.7 23.5-11.4 3.6-1.6 15.9-7.5 27.5-13.1 11.5-5.6 26.9-13.8 34-18.2l13-8c1.2 11.9 1.3 22.5 1 31.3-0.3 8.8-1 19.8-1.6 24.5-0.5 4.7-1.9 13.2-3 19-1.1 5.8-3.5 15.7-5.4 22-1.8 6.3-5.2 15.8-7.5 21-2.2 5.2-6.8 14.2-10.1 20-3.3 5.8-9 14.5-12.7 19.4-3.7 5-10.3 13.1-14.8 18-4.4 5-15.7 16.3-25 25.1-9.3 8.8-23.2 22.3-30.9 30-7.8 7.7-16.8 17.4-20.1 21.5-3.3 4.1-8.7 11.3-11.9 16-3.1 4.7-7.7 12.3-10 17-2.4 4.7-5.9 13.2-7.9 19-2 5.8-4.5 14.8-5.6 20-1 5.2-2.4 15.1-3 22-0.7 7.2-0.9 18.2-0.5 26 0.5 10.7 1 14.2 2.6 16.8 1 1.7 3.4 4.1 5.1 5.2 3.3 2 5.2 2 297.1 2 291.7 0 293.7 0 297.7-2 2.2-1.1 5-3.5 6.2-5.3 2.2-3.1 2.3-4.1 2.6-29.7 0.2-14.6-0.2-40.7-0.8-58-0.6-17.3-1.5-38.5-2.1-47-0.5-8.5-1.6-23.8-2.5-34-0.8-10.2-2.6-28.6-4-41-1.3-12.4-2.9-25.6-3.4-29.5-0.6-3.9-1.7-12-2.5-18-0.9-6-3.3-21.4-5.5-34-2.2-12.6-5.8-31.8-8-42.5-2.2-10.7-5.2-24.5-6.6-30.5-1.5-6-4.9-19.3-7.6-29.5-2.7-10.2-7.7-27.3-11-38-3.3-10.7-8.7-26.7-11.8-35.5-3.2-8.8-8.5-22.5-11.8-30.5-3.3-8-8.3-19.7-11.2-26-2.8-6.3-8.8-18.7-13.4-27.5-4.6-8.8-11.4-21.2-15.1-27.5-3.8-6.3-9.9-16.2-13.8-22-3.8-5.8-10.6-15.4-15.2-21.5-4.5-6.1-13.2-16.6-19.2-23.5-6-6.9-15.4-16.6-20.9-21.7-5.4-5.1-13.1-11.7-16.9-14.8-3.9-3.1-12.4-9.3-19-13.7-6.6-4.4-17.9-10.9-25-14.4-7.2-3.4-16.8-7.6-21.5-9.2-4.7-1.6-13.2-4.1-19-5.5-5.8-1.4-14.3-3-19-3.6-4.7-0.6-26.7-1.5-49-2.1-22.3-0.5-44.5-1-49.5-1h-9c-31-62.3-41.1-81.7-42.5-83.3-1.4-1.6-3.7-3.6-5.3-4.3-1.5-0.8-4.6-1.4-7-1.4-2.3 0-5.6 0.8-7.4 1.7-1.7 1-5.5 4-8.5 6.7-2.9 2.6-7.8 7.1-10.8 10-3 2.8-11.1 10.3-18 16.6-6.9 6.3-15 13.9-18 16.7-3 2.9-6 5.3-6.5 5.3-0.6 0-5.3-2.4-10.5-5.3-5.2-2.9-21-11.8-35-19.6-14-7.9-33.2-18.7-42.5-23.9-14.8-8.4-17.7-9.6-22.5-10-4.2-0.2-6.1 0.1-8.2 1.6z"/>
		<path id="Path 1" class="s1" d="m234 377.5v8.5h-17v17h-17v17h17v-17h17v17h16v-17h17v-17h17v-17h-17v17h-17v-17h-16zm189 0v8.5h-17v17h-16v17h16v-17h17v17h17v-17h17v-17h17v-17h-17v17h-17v-17h-17z"/>
		<path id="Path 2" fill-rule="evenodd" class="s2" d="m488.1 165.7c0.4 0.4 8.5 16.3 18 35.3 9.5 19 18.5 35.9 19.9 37.5 1.5 1.7 4.2 3.8 6.1 4.7 2.9 1.4 9.9 1.8 51.9 2.7 26.7 0.6 52.5 1.3 57.5 1.7 5 0.3 13.3 1.4 18.5 2.4 5.2 1 13.8 3.2 19 4.9 5.2 1.8 14.5 5.6 20.5 8.5 6 2.8 14.4 7.4 18.5 10 4.1 2.7 10 6.7 13 8.9 3 2.3 8.2 6.4 11.5 9.1 3.3 2.7 9.7 8.6 14.3 13 4.6 4.5 12.5 12.8 17.6 18.6 5.1 5.8 12 14.1 15.3 18.5 3.3 4.4 9 12.3 12.6 17.5 3.6 5.2 10.4 16 15.2 24 4.7 8 12.8 22.8 17.9 33 5.1 10.2 12.7 26.6 16.9 36.5 4.2 9.9 10.8 26.8 14.7 37.5 3.9 10.7 9.1 26.3 11.7 34.5 2.5 8.3 6.3 21.3 8.4 29 2.2 7.7 5.8 21.4 8 30.5 2.2 9.1 5.6 23.9 7.6 33 1.9 9.1 5.2 26.6 7.4 39 2.1 12.4 5.2 31.7 6.9 43 1.6 11.3 4 31.1 5.4 44 1.4 12.9 3.2 32 4 42.5 0.9 10.5 2 27.1 2.6 37 0.6 9.9 1.5 32.2 2 49.5 0.5 17.3 1 36.6 1 54h-553.5l0.7-14.2c0.3-8.3 1.5-18.1 2.7-23.3 1.1-5 3.2-12.4 4.7-16.5 1.4-4.1 4.2-10.6 6.2-14.5 1.9-3.9 5.6-10.1 8.2-14 2.6-3.9 8.1-11 12.2-16 4.1-5 16.9-18.1 28.4-29.1 11.5-11.1 22.7-21.7 24.8-23.5 2.2-1.9 9.3-9.3 15.9-16.4 6.6-7.1 15.2-17.3 19.2-22.5 4-5.2 9-12.4 11.2-16 2.1-3.6 6.2-10.8 9-16 2.8-5.2 6.7-13.4 8.7-18.2 2-4.9 5.1-13.9 7-20 1.9-6.2 4.6-16.9 5.9-23.8 1.4-6.9 3.1-17.2 3.9-23 0.8-6.6 1.3-20.8 1.3-38 0-15.1-0.4-30.4-1.6-40.5l8.6-10.5c4.8-5.8 11-13.9 13.9-18 3-4.1 7.2-10.9 9.6-15 2.3-4.1 5.7-11.1 7.5-15.5 1.8-4.4 4.3-11.6 5.5-16 1.1-4.4 2.7-12.5 3.5-18 0.8-5.5 1.7-15.4 2.1-22 0.6-11 0.5-12.4-1.5-16.7-1.3-2.9-3.4-5.6-5.4-6.8-1.9-1.2-5-2-7.7-2-2.7 0-5.8 0.8-7.8 2-1.8 1.2-4 3.8-5.1 6.3-1.3 3-2 7.8-2.5 17.2-0.4 7.1-1.5 17.3-2.6 22.5-1.1 5.2-3.1 12.9-4.5 17-1.4 4.1-4.5 11.1-6.8 15.5-2.4 4.4-6.8 11.4-9.8 15.5-3.1 4.1-8.2 10.4-11.5 13.9-3.2 3.5-9.7 9.4-14.4 13.1-4.7 3.7-11.9 8.9-16 11.7-4.1 2.7-12.5 7.8-18.5 11.3-6.1 3.5-18.6 10-28 14.5-9.4 4.5-20.8 9.9-25.5 12.1-4.7 2.1-16.6 7.9-26.5 13-9.9 5-23 12.1-29 15.8-6.1 3.8-14.8 9.8-19.5 13.6-4.7 3.7-10.9 9.6-13.9 13.1-3 3.5-9 11.8-13.3 18.4-4.3 6.6-10.5 17.2-13.7 23.5-3.3 6.3-8.2 16.7-11.1 23-2.9 6.3-8 16-11.3 21.5-3.3 5.5-8.5 13.3-11.6 17.3-3.1 4.1-7.9 8.9-10.6 10.9-3.7 2.6-6.4 3.6-10.5 4-3.7 0.3-6.9 0-9.8-1.1-2.3-0.9-4.2-2.2-4.2-2.8 0-0.7 1.6-3.5 3.4-6.3 1.9-2.7 8-12.2 13.5-21 9.4-14.8 10.1-16.4 10.1-21 0-3-0.7-6.1-1.8-7.7-0.9-1.5-3.1-3.7-4.7-4.8-1.9-1.2-4.7-2-7.5-2-3.3 0-5.7 0.8-9 2.8-2.5 1.6-5.6 4-7 5.4-1.4 1.4-7.9 8.4-14.5 15.7-11.3 12.4-12.2 13.1-15.8 13.1-2 0-6.3-0.7-9.5-1.6-3.1-0.9-9.8-3.7-14.7-6.2-6.4-3.3-10.9-6.5-15.6-11.2-3.6-3.6-8.6-9.9-11.2-14-2.5-4.1-5.9-11.1-7.5-15.5-1.6-4.4-3.5-11.6-4.2-16-0.7-4.7-0.9-11.1-0.5-15.5 0.3-4.1 1.3-10.8 2.1-14.7 0.8-4 2.9-11.5 4.8-16.5 1.9-5.1 4.4-11.5 5.6-14.3 1.3-2.7 5.4-10.9 9.3-18 3.9-7.1 11.9-20.4 17.7-29.5 5.9-9.1 14.3-21.9 18.7-28.5 4.4-6.6 10.8-16.7 14.3-22.5 3.5-5.8 9.1-15.9 12.5-22.5 3.4-6.6 7.5-15.8 12.3-29l25.2-0.5v-17h17v-17h17v-38h26v38h16v17h17v17h97v-17h17v-17h17v-16h17v-22h122v-21h-374l2.5-5.7c1.4-3.2 4-8.5 5.7-11.8 1.7-3.3 5.9-10 9.2-14.9 3.4-4.9 9.3-12.6 13.1-17 3.9-4.5 10.5-10.8 14.5-14.2 4.1-3.4 10.6-8.1 14.5-10.6 3.9-2.5 21.9-12 40-21.3 18.1-9.2 41.3-21.1 51.5-26.3 10.2-5.2 19.8-10.4 21.5-11.6 1.6-1.1 5.3-4.1 8.1-6.6 2.8-2.5 14.4-13.2 25.9-23.8 11.5-10.7 21.2-19 21.6-18.5zm-156.8 1.4c1.2 0.7 5.1 2.9 8.7 4.9 3.6 2.1 12.4 7 19.5 11 7.1 4.1 17.2 9.8 22.3 12.7 5 2.9 9.2 5.8 9.2 6.3 0 0.6-8.4 5.2-18.8 10.4-10.3 5.2-23.1 11.7-28.4 14.5-6.7 3.5-9.9 4.7-10.2 3.9-0.3-0.7-1.6-15.1-3-32-1.4-17-2.3-31.3-2-31.8 0.3-0.7 1.3-0.6 2.7 0.1z"/>
		<path id="Path 3" class="s1" d="m250 394.5v8.5h17v-17h-17zm190 0v8.5h17v-17h-17z"/>
		<path id="Path 4" class="s0" d="m634 380v11h21v-22h-21zm-400 14.5v8.5h16v-17h-16zm189 0v8.5h17v-17h-17zm-237 215c-2.5 0.7-6.5 3.1-9 5.3-2.5 2.1-5.9 6.5-7.6 9.8-1.8 3.2-3.7 8.3-4.3 11.1-0.6 2.9-1.1 9.8-1.1 15.3 0 6.9 0.5 10.9 1.5 13 0.9 1.8 2.3 3 3.5 3 1.1 0 5.5-2.3 9.8-5.2 4.2-2.8 11.1-7.7 15.2-10.8 4.1-3.2 9.6-8 12.3-10.9 4.5-4.9 4.7-5.3 4.7-11.1 0-3.3-0.5-7.2-1.1-8.8-0.6-1.5-2-3.8-3.2-5-1.2-1.3-3.8-3.2-5.7-4.2-1.9-1-5.1-2.1-7-2.4-1.9-0.3-5.5 0.1-8 0.9z"/>
	</g>
</svg>