<?xml version="1.0" encoding="UTF-8" standalone="no"?>
<!-- Created with Inkscape (http://www.inkscape.org/) -->

<svg
   version="1.1"
   id="svg1"
   width="688"
   height="688"
   viewBox="0 0 688 688"
   sodipodi:docname="archbishop-black.svg"
   inkscape:version="1.3 (0e150ed6c4, 2023-07-21)"
   xmlns:inkscape="http://www.inkscape.org/namespaces/inkscape"
   xmlns:sodipodi="http://sodipodi.sourceforge.net/DTD/sodipodi-0.dtd"
   xmlns="http://www.w3.org/2000/svg"
   xmlns:svg="http://www.w3.org/2000/svg">
  <defs
     id="defs1">
    <inkscape:path-effect
       effect="fillet_chamfer"
       id="path-effect9"
       is_visible="true"
       lpeversion="1"
       nodesatellites_param="F,0,0,1,0,0,0,1 @ F,0,0,1,0,0,0,1 @ F,0,0,1,0,0,0,1 @ F,0,0,1,0,0,0,1 @ F,0,0,1,0,0,0,1 @ F,0,0,1,0,0,0,1 @ F,0,0,1,0,0,0,1 @ F,0,0,1,0,25.226774,0,1 @ F,0,1,1,0,25.226774,0,1 @ F,0,1,1,0,25.226774,0,1 @ F,0,1,1,0,25.226774,0,1 @ F,0,0,1,0,0,0,1 @ F,0,0,1,0,0,0,1 @ F,0,0,1,0,0,0,1 @ F,0,0,1,0,0,0,1 @ F,0,0,1,0,0,0,1 @ F,0,0,1,0,0,0,1 @ F,0,0,1,0,0,0,1 @ F,0,0,1,0,0,0,1"
       radius="0"
       unit="px"
       method="auto"
       mode="F"
       chamfer_steps="1"
       flexible="false"
       use_knot_distance="true"
       apply_no_radius="true"
       apply_with_radius="true"
       only_selected="false"
       hide_knots="false" />
    <inkscape:path-effect
       effect="mirror_symmetry"
       start_point="345.26437,380.5868"
       end_point="345.26437,588.33252"
       center_point="345.26437,484.45966"
       id="path-effect3"
       is_visible="true"
       lpeversion="1.2"
       lpesatellites=""
       mode="free"
       discard_orig_path="false"
       fuse_paths="false"
       oposite_fuse="false"
       split_items="true"
       split_open="false"
       link_styles="false" />
  </defs>
  <sodipodi:namedview
     id="namedview1"
     pagecolor="#ffffff"
     bordercolor="#000000"
     borderopacity="0.25"
     inkscape:showpageshadow="2"
     inkscape:pageopacity="0.0"
     inkscape:pagecheckerboard="0"
     inkscape:deskcolor="#d1d1d1"
     inkscape:zoom="1"
     inkscape:cx="-210"
     inkscape:cy="461"
     inkscape:window-width="3840"
     inkscape:window-height="1878"
     inkscape:window-x="-11"
     inkscape:window-y="-11"
     inkscape:window-maximized="1"
     inkscape:current-layer="g1" />
  <g
     inkscape:groupmode="layer"
     inkscape:label="Image"
     id="g1"
     style="display:inline">
    <path
       id="path2"
       style="display:inline;fill:#575452;fill-opacity:1;stroke:none;stroke-width:10;stroke-dasharray:none;stroke-opacity:1"
       d="m 570.77377,89.309543 c -11.06611,-11.06441 -20.46339,7.53395 -21.05025,7.48815 -3.80667,-0.35206 -8.24642,-0.38507 -14.6545,-1.01508 -15.25998,-1.50032 -37.89131,4.258577 -50.60509,25.892247 -6.80479,11.36884 -7.71907,25.53911 -2.51493,38.97789 -41.27854,-17.35933 -90.72532,-9.25554 -124.34445,24.36341 -28.11247,28.2256 -38.85592,68.74823 -29.16125,107.3877 l -0.79135,-0.11463 c -55.32162,-7.6897 -127.39101,-16.95658 -217.83309,64.0926 -10.374174,9.29677 -10.289456,25.36972 -0.4378,35.22138 l 83.23145,83.23144 17.91383,17.91383 101.06793,101.06793 c 9.85166,9.85166 25.92453,9.93645 35.22138,-0.43779 81.0492,-90.44186 71.78367,-162.51012 64.09398,-217.83171 l -0.28174,-1.32305 c 38.64051,9.69656 79.32665,-0.51754 107.55343,-28.63093 40.40149,-40.40171 44.18408,-101.77475 10.96292,-146.24128 14.81957,3.02281 26.0219,-1.8421 34.76423,-7.29757 9.66185,-6.02925 29.14059,-34.66634 21.24636,-47.1027 -5.54439,-5.32431 -57.47188,9.94733 -59.28787,2.26634 -1.6684,-7.05676 -2.01415,-9.15989 -2.91129,-13.4378 -1.25361,-5.97773 55.9864,-9.37577 51.85634,-14.74428 -1.59716,-2.6995 -8.44917,-7.67303 -6.70371,-8.86646 4.61966,-6.2018 12.54886,-13.098767 2.66547,-20.859637 z"
       sodipodi:nodetypes="ccscccccssccssccccscssccc"
       inkscape:label="body"
       sodipodi:insensitive="true" />
    <path
       style="display:inline;fill:#464342;fill-opacity:1;stroke:none;stroke-width:10;stroke-linecap:butt;stroke-dasharray:none;stroke-opacity:1"
       d="m 545.38007,275.58107 c -5.07793,12.3866 -69.19212,157.81782 -226.62772,16.61701 -40.13773,50.94401 78.01579,96.17285 47.55293,276.30198 43.94095,-56.86808 48.05984,-121.27006 43.13351,-187.3833 l 84.14571,-13.43503 c 22.73312,-27.04776 57.22148,-53.88525 51.79557,-92.10066 z"
       id="path10"
       inkscape:label="shadow body"
       sodipodi:nodetypes="cccccc" />
    <path
       style="display:inline;fill:#464342;fill-opacity:1;stroke:none;stroke-width:10;stroke-linecap:butt;stroke-dasharray:none;stroke-opacity:1"
       d="m 581.86773,160.34555 c -26.40577,37.88019 -54.26178,20.51795 -78.41422,7.3934 l 28.49999,37.5 38.00001,-15 c 6.0847,-12.46612 18.24214,-12.46223 11.91422,-29.8934 z"
       id="path11"
       inkscape:label="shadow hat"
       sodipodi:nodetypes="ccccc" />
    <path
       style="display:inline;fill:none;stroke:#000000;stroke-width:10;stroke-linecap:butt;stroke-dasharray:none;stroke-opacity:1"
       d="m 325.64664,289.54643 c 22.8389,36.38533 52.4788,64.83615 86.62058,88.0348"
       id="path3"
       sodipodi:nodetypes="cc"
       inkscape:label="body seperator" />
    <path
       style="display:inline;fill:none;fill-opacity:1;stroke:#000000;stroke-width:10;stroke-linecap:butt;stroke-dasharray:none;stroke-opacity:1"
       d="m 479.61914,158.90845 c 19.9905,11.16526 37.74619,24.90914 51.61879,43.13352"
       id="path9"
       sodipodi:nodetypes="cc"
       inkscape:label="hat seperator" />
    <path
       style="display:inline;fill:none;fill-opacity:1;stroke:#000000;stroke-width:10;stroke-linecap:round;stroke-dasharray:none;stroke-opacity:1"
       d="m 466.00733,262.32282 c -5.01889,22.43707 -30.76515,45.31392 -45.52,40.74703 -14.2957,-3.35246 -26.1908,-18.96258 -26.95844,-30.49398 -1.96585,-29.53057 39.68616,-44.82829 64.70027,-35.70889"
       id="path8"
       sodipodi:nodetypes="ccsc"
       inkscape:label="nose" />
    <path
       style="display:inline;fill:none;fill-opacity:1;stroke:#000000;stroke-width:10;stroke-linecap:round;stroke-dasharray:none;stroke-opacity:1"
       d="m 350.74893,284.24313 c 23.90231,14.28146 44.79637,31.57116 63.99316,50.55814"
       id="path7"
       sodipodi:nodetypes="cc"
       inkscape:label="mouth" />
    <circle
       style="fill:#000000;fill-opacity:1;stroke:none;stroke-width:13.3333;stroke-linecap:round;stroke-dasharray:none;stroke-opacity:1"
       id="path6"
       cx="462.23035"
       cy="-162.07916"
       r="9.8994951"
       inkscape:label="eye 1"
       transform="rotate(45)" />
    <circle
       style="fill:#000000;fill-opacity:1;stroke:none;stroke-width:13.3333;stroke-linecap:round;stroke-dasharray:none;stroke-opacity:1"
       id="circle6"
       cx="526.22351"
       cy="-167.38245"
       r="9.8994951"
       inkscape:label="eye 2"
       transform="rotate(45)" />
    <path
       style="display:inline;fill:none;stroke:#000000;stroke-width:10;stroke-linecap:round;stroke-dasharray:none;stroke-opacity:1"
       d="m 520.27458,277.06002 c 1.81906,-11.95518 2.59124,-24.21826 -3.50001,-38.5"
       id="path4"
       sodipodi:nodetypes="cc"
       inkscape:label="eyebrow 1" />
    <path
       style="display:inline;fill:none;stroke:#000000;stroke-width:10;stroke-linecap:round;stroke-dasharray:none;stroke-opacity:1"
       d="m 423.21208,175.74752 c 11.0847,-1.17351 21.27421,2.12894 31.375,5.875"
       id="path5"
       sodipodi:nodetypes="cc"
       inkscape:label="eyebrow 2" />
    <path
       id="path1"
       style="display:inline;fill:none;stroke:#000000;stroke-width:10;stroke-dasharray:none;stroke-opacity:1"
       d="m 570.24344,89.839873 c -11.06611,-11.06441 -20.46339,7.53395 -21.05025,7.48815 -3.80667,-0.35206 -8.24642,-0.38507 -14.6545,-1.01508 -15.25998,-1.50032 -37.89131,4.258577 -50.60509,25.892247 -6.80479,11.36884 -7.71907,25.53911 -2.51493,38.97789 -41.27854,-17.35933 -90.72532,-9.25554 -124.34445,24.36341 -28.11247,28.2256 -38.85592,68.74823 -29.16125,107.3877 l -0.79135,-0.11463 c -55.32162,-7.6897 -127.39101,-16.95658 -217.8331,64.0926 -10.374164,9.29677 -10.289446,25.36972 -0.43779,35.22138 l 83.23145,83.23144 17.91383,17.91383 101.06793,101.06793 c 9.85166,9.85166 25.92453,9.93645 35.22138,-0.43779 81.0492,-90.44186 71.78367,-162.51012 64.09398,-217.83171 l -0.28174,-1.32305 c 38.64051,9.69656 79.32665,-0.51754 107.55343,-28.63093 40.40149,-40.40171 44.18408,-101.77475 10.96292,-146.24128 14.81957,3.02281 26.0219,-1.8421 34.76423,-7.29757 9.66185,-6.02925 29.14059,-34.66634 21.24636,-47.1027 -5.54439,-5.32431 -57.47188,9.94733 -59.28787,2.26634 -1.6684,-7.05676 -2.01415,-9.15989 -2.91129,-13.4378 -1.25361,-5.97773 55.9864,-9.37577 51.85634,-14.74428 -1.59716,-2.6995 -8.44917,-7.67303 -6.70371,-8.86646 4.61966,-6.2018 12.54886,-13.098767 2.66547,-20.859637 z"
       sodipodi:nodetypes="ccscccccssccssccccscssccc"
       inkscape:label="body stroke"
       sodipodi:insensitive="true" />
  </g>
</svg>
