<?xml version="1.0" encoding="UTF-8" standalone="no"?>
<!-- Created with Inkscape (http://www.inkscape.org/) -->

<svg
   version="1.1"
   id="svg1"
   width="688"
   height="688"
   viewBox="0 0 688 688"
   sodipodi:docname="xook-white.svg"
   xml:space="preserve"
   inkscape:version="1.3 (0e150ed6c4, 2023-07-21)"
   xmlns:inkscape="http://www.inkscape.org/namespaces/inkscape"
   xmlns:sodipodi="http://sodipodi.sourceforge.net/DTD/sodipodi-0.dtd"
   xmlns="http://www.w3.org/2000/svg"
   xmlns:svg="http://www.w3.org/2000/svg"><defs
     id="defs1"><inkscape:path-effect
       effect="fillet_chamfer"
       id="path-effect23"
       is_visible="true"
       lpeversion="1"
       nodesatellites_param="F,0,0,1,0,0,0,1 @ F,0,0,1,0,0,0,1 @ F,0,0,1,0,0,0,1 @ F,0,0,1,0,0,0,1"
       radius="0"
       unit="px"
       method="auto"
       mode="F"
       chamfer_steps="1"
       flexible="false"
       use_knot_distance="true"
       apply_no_radius="true"
       apply_with_radius="true"
       only_selected="false"
       hide_knots="false" /><inkscape:path-effect
       effect="roughen"
       id="path-effect19"
       is_visible="true"
       lpeversion="1.2"
       global_randomize="1;1"
       displace_x="0;1"
       displace_y="0;1"
       method="size"
       max_segment_size="0.606"
       segments="2"
       handles="along"
       shift_nodes="true"
       fixed_displacement="false"
       spray_tool_friendly="false" /><inkscape:path-effect
       effect="roughen"
       id="path-effect10"
       is_visible="true"
       lpeversion="1.2"
       global_randomize="4;1"
       displace_x="3.94;1"
       displace_y="0.83;1"
       method="segments"
       max_segment_size="0.689682"
       segments="2"
       handles="along"
       shift_nodes="true"
       fixed_displacement="false"
       spray_tool_friendly="false" /><inkscape:path-effect
       effect="roughen"
       id="path-effect9"
       is_visible="true"
       lpeversion="1.2"
       global_randomize="1;1"
       displace_x="10;1"
       displace_y="10;1"
       method="size"
       max_segment_size="1.38349"
       segments="2"
       handles="along"
       shift_nodes="true"
       fixed_displacement="false"
       spray_tool_friendly="false" /><inkscape:path-effect
       effect="fillet_chamfer"
       id="path-effect24"
       is_visible="true"
       lpeversion="1"
       nodesatellites_param="F,0,0,1,0,0,0,1 @ F,0,0,1,0,0,0,1 @ F,0,0,1,0,17.602022,0,1 @ F,0,0,1,0,17.602022,0,1 @ F,0,0,1,0,17.602022,0,1 @ F,0,0,1,0,17.602022,0,1 @ F,0,0,1,0,0,0,1 @ F,0,0,1,0,0,0,1"
       radius="0"
       unit="px"
       method="auto"
       mode="F"
       chamfer_steps="1"
       flexible="false"
       use_knot_distance="true"
       apply_no_radius="true"
       apply_with_radius="true"
       only_selected="false"
       hide_knots="false" /><inkscape:path-effect
       effect="fillet_chamfer"
       id="path-effect22"
       is_visible="true"
       lpeversion="1"
       nodesatellites_param="F,0,0,1,0,0,0,1 @ F,0,0,1,0,0,0,1 @ F,0,0,1,0,0,0,1 @ F,0,0,1,0,0,0,1 @ F,0,0,1,0,0,0,1 @ F,0,1,1,0,7.4937226,0,1 @ F,0,0,1,0,7.4937226,0,1 @ F,0,0,1,0,0,0,1 @ F,0,0,1,0,0,0,1 @ F,0,0,1,0,0,0,1 @ F,0,0,1,0,0,0,1 @ F,0,0,1,0,0,0,1 @ F,0,0,1,0,0,0,1 @ F,0,0,1,0,0,0,1 @ F,0,0,1,0,0,0,1"
       radius="0"
       unit="px"
       method="auto"
       mode="F"
       chamfer_steps="1"
       flexible="false"
       use_knot_distance="true"
       apply_no_radius="true"
       apply_with_radius="true"
       only_selected="false"
       hide_knots="false" /><inkscape:path-effect
       effect="fillet_chamfer"
       id="path-effect18"
       is_visible="true"
       lpeversion="1"
       nodesatellites_param="F,0,0,1,0,0,0,1 @ F,0,0,1,0,0,0,1 @ F,0,0,1,0,0,0,1 @ F,0,0,1,0,0,0,1 @ F,0,0,1,0,0,0,1 @ F,0,1,1,0,7.4937226,0,1 @ F,0,0,1,0,7.4937226,0,1 @ F,0,0,1,0,0,0,1 @ F,0,0,1,0,0,0,1 @ F,0,0,1,0,0,0,1 @ F,0,0,1,0,0,0,1 @ F,0,0,1,0,0,0,1 @ F,0,0,1,0,0,0,1 @ F,0,0,1,0,0,0,1 @ F,0,0,1,0,0,0,1"
       radius="0"
       unit="px"
       method="auto"
       mode="F"
       chamfer_steps="1"
       flexible="false"
       use_knot_distance="true"
       apply_no_radius="true"
       apply_with_radius="true"
       only_selected="false"
       hide_knots="false" /></defs><sodipodi:namedview
     id="namedview1"
     pagecolor="#ffffff"
     bordercolor="#000000"
     borderopacity="0.25"
     inkscape:showpageshadow="2"
     inkscape:pageopacity="0.0"
     inkscape:pagecheckerboard="0"
     inkscape:deskcolor="#d1d1d1"
     inkscape:zoom="1.1889535"
     inkscape:cx="-151.81419"
     inkscape:cy="389.41811"
     inkscape:window-width="3840"
     inkscape:window-height="1878"
     inkscape:window-x="-11"
     inkscape:window-y="-11"
     inkscape:window-maximized="1"
     inkscape:current-layer="g1" /><g
     inkscape:groupmode="layer"
     inkscape:label="Image"
     id="g1"><path
       id="path1"
       style="display:inline;fill:#ffffff;fill-opacity:1;stroke:none;stroke-width:10;stroke-dasharray:none;stroke-opacity:1"
       inkscape:label="body"
       d="M 354.51109,158.07064 132.8345,379.50969 79.904201,334.60825 l -43.118332,40.14468 275.860591,279.1316 45.9433,-45.0512 -47.87647,-51.44485 221.56335,-221.56335 z"
       sodipodi:nodetypes="ccccccccc"
       sodipodi:insensitive="true" /><path
       id="rect22"
       style="fill:#d3d3d6;stroke-width:8.72339;stroke-linejoin:round"
       inkscape:label="base shadow"
       d="M 45.407567,364.90831 324.0599,643.56064 312.38176,655.23878 33.729423,376.58645 Z" /><path
       style="fill:#d3d3d6;fill-opacity:1;stroke:none;stroke-width:10;stroke-linecap:butt;stroke-linejoin:round;stroke-opacity:1"
       d="m 427.75687,232.13847 c 87.30447,147.4261 -71.81554,205.27745 -140.67611,299.27868 l 22.9255,28.74088 223.72616,-227.09046 z"
       id="path22"
       sodipodi:nodetypes="ccccc"
       inkscape:label="shadow" /><path
       style="fill:#000000;stroke:#000000;stroke-width:10;stroke-linecap:butt;stroke-linejoin:round;stroke-opacity:1"
       d="m 130.62653,377.27689 181.9875,181.9875"
       id="path19"
       inkscape:label="body seperator" /><g
       id="g22"
       inkscape:label="crown"
       style="display:inline"
       transform="matrix(1.122566,1.3378221,-1.3378221,1.122566,286.3384,-389.32032)"><path
         id="path13"
         style="display:inline;fill:#ffffff;fill-opacity:1;stroke:none;stroke-width:7.85103;stroke-dasharray:none"
         d="m 316.07057,133.44869 h -36.32032 c -1.3339,0 -2.36341,-1.02749 -2.32558,-2.29549 1.48372,-49.734226 -45.29347,-37.944088 -47.83003,-15.02362 -0.13956,1.26111 -0.14014,3.31931 -0.1415,4.58783 l -0.0403,38.00138 a 7.4857711,7.4857711 45.030414 0 0 7.48576,7.49372 l 198.91427,0 a 7.4857711,7.4857711 134.96959 0 0 7.48576,-7.49372 l -0.0403,-38.00138 c -0.002,-1.26852 -0.002,-3.32672 -0.1415,-4.58783 -2.53656,-22.92044 -49.31374,-34.710634 -47.83002,15.02362 0.0379,1.26799 -0.99169,2.29549 -2.32559,2.29549 h -34.44085 c -5.70668,0 5.95859,-25.52906 -11.43317,-35.658065 -5.09247,-2.512473 -15.68074,-2.665438 -20.40716,1.581661 -11.53385,13.169084 -7.9912,34.076404 -10.60945,34.076404 z"
         sodipodi:nodetypes="ssssccccssssccss"
         inkscape:label="crown"
         transform="matrix(1.0175703,-0.08902586,0.08902586,1.0175703,-22.05283,24.213401)"
         inkscape:original-d="m 316.07057,133.44869 h -36.32032 c -1.3339,0 -2.36341,-1.02749 -2.32558,-2.29549 1.48372,-49.734226 -45.29347,-37.944088 -47.83003,-15.02362 -0.13956,1.26111 -0.14014,3.31931 -0.1415,4.58783 l -0.0483,45.4951 h 213.90171 l -0.0483,-45.4951 c -0.002,-1.26852 -0.002,-3.32672 -0.1415,-4.58783 -2.53656,-22.92044 -49.31374,-34.710634 -47.83002,15.02362 0.0379,1.26799 -0.99169,2.29549 -2.32559,2.29549 h -34.44085 c -5.70668,0 5.95859,-25.52906 -11.43317,-35.658065 -5.09247,-2.512473 -15.68074,-2.665438 -20.40716,1.581661 -11.53385,13.169084 -7.9912,34.076404 -10.60945,34.076404 z"
         inkscape:path-effect="#path-effect18" /><path
         style="display:inline;fill:#d3d3d6;fill-opacity:1;stroke:none;stroke-width:7"
         d="m 425.81212,85.405267 c 1.01513,26.602043 -14.42101,50.980663 -27.67535,71.240723 l 43.65941,-4.40071 c -5.52484,-27.46272 3.8091,-60.770889 -15.98406,-66.840013 z"
         id="path20"
         sodipodi:nodetypes="cccc"
         inkscape:label="shadow" /><path
         id="path21"
         style="display:inline;fill:none;fill-opacity:1;stroke:#000000;stroke-width:5.60577;stroke-dasharray:none"
         d="m 316.07057,133.44869 h -36.32032 c -1.3339,0 -2.36341,-1.02749 -2.32558,-2.29549 1.48372,-49.734226 -45.29347,-37.944088 -47.83003,-15.02362 -0.13956,1.26111 -0.14014,3.31931 -0.1415,4.58783 l -0.0403,38.00138 a 7.4857711,7.4857711 45.030414 0 0 7.48576,7.49372 l 198.91427,0 a 7.4857711,7.4857711 134.96959 0 0 7.48576,-7.49372 l -0.0403,-38.00138 c -0.002,-1.26852 -0.002,-3.32672 -0.1415,-4.58783 -2.53656,-22.92044 -49.31374,-34.710634 -47.83002,15.02362 0.0379,1.26799 -0.99169,2.29549 -2.32559,2.29549 h -34.44085 c -5.70668,0 5.95859,-25.52906 -11.43317,-35.658065 -5.09247,-2.512473 -15.68074,-2.665438 -20.40716,1.581661 -11.53385,13.169084 -7.9912,34.076404 -10.60945,34.076404 z"
         sodipodi:nodetypes="ssssccccssssccss"
         inkscape:label="crown stroke"
         transform="matrix(1.0175703,-0.08902586,0.08902586,1.0175703,-22.05283,24.213401)"
         inkscape:original-d="m 316.07057,133.44869 h -36.32032 c -1.3339,0 -2.36341,-1.02749 -2.32558,-2.29549 1.48372,-49.734226 -45.29347,-37.944088 -47.83003,-15.02362 -0.13956,1.26111 -0.14014,3.31931 -0.1415,4.58783 l -0.0483,45.4951 h 213.90171 l -0.0483,-45.4951 c -0.002,-1.26852 -0.002,-3.32672 -0.1415,-4.58783 -2.53656,-22.92044 -49.31374,-34.710634 -47.83002,15.02362 0.0379,1.26799 -0.99169,2.29549 -2.32559,2.29549 h -34.44085 c -5.70668,0 5.95859,-25.52906 -11.43317,-35.658065 -5.09247,-2.512473 -15.68074,-2.665438 -20.40716,1.581661 -11.53385,13.169084 -7.9912,34.076404 -10.60945,34.076404 z"
         inkscape:path-effect="#path-effect22" /></g><g
       id="g2"
       inkscape:label="eye 1"
       transform="rotate(45,384.8673,363.44951)"><circle
         style="fill:#000000;fill-opacity:1;stroke:none;stroke-width:17.1053;stroke-linecap:round;stroke-dasharray:none;stroke-opacity:1"
         id="circle4"
         cx="352.27673"
         cy="337.95554"
         r="9.6643686"
         inkscape:label="eyeball" /><path
         style="fill:none;stroke:#000000;stroke-width:15;stroke-linecap:round;stroke-dasharray:none;stroke-opacity:1"
         d="m 352.45302,301.32159 36.12399,29.64173"
         id="path2"
         sodipodi:nodetypes="cc"
         inkscape:label="eyebrow" /></g><g
       id="g3"
       inkscape:label="eye 2"
       transform="rotate(45,384.8673,363.44951)"><path
         style="fill:none;stroke:#000000;stroke-width:15;stroke-linecap:round;stroke-dasharray:none;stroke-opacity:1"
         d="m 320.57701,301.32159 -36.12399,29.64173"
         id="path3"
         sodipodi:nodetypes="cc"
         inkscape:label="eyebrow" /><circle
         style="fill:#000000;fill-opacity:1;stroke:none;stroke-width:17.1053;stroke-linecap:round;stroke-dasharray:none;stroke-opacity:1"
         id="path4"
         cx="324.27673"
         cy="337.95554"
         r="9.6643686"
         inkscape:label="eyeball" /></g><path
       style="fill:none;stroke:#000000;stroke-width:10;stroke-linecap:round;stroke-linejoin:round;stroke-opacity:1"
       d="M 359.84,366.07978 C 289.94088,467.6899 222.68237,273.47889 353.11139,329.07245"
       id="path5"
       sodipodi:nodetypes="cc"
       inkscape:label="nose" /><path
       id="Path 18"
       class="s0"
       d="m 279.47101,373.73104 c -2.34069,-0.40281 -5.27778,-0.0528 -8.10165,-0.0583 -5.41605,-0.0104 -10.56699,0.95804 -14.93161,1.68662 -3.66049,0.61104 -6.74335,0.42275 -7.25961,0.93901 -1.37106,1.37106 4.38108,10.39886 8.01901,8.67563 2.26274,-1.27279 2.47487,-1.20208 5.65685,2.82843 1.00672,1.29328 4.1482,3.242 5.23259,3.25269 4.68788,0.21579 2.4378,4.2306 6.85894,5.44472 3.31643,-1.92004 0.8272,1.36985 5.16724,3.13305 2.87547,1.3025 -0.73226,1.73751 5.01509,3.23091 1.34351,0.49498 3.18199,1.76777 4.24265,2.82843 0.91291,4.30229 0.83303,5.91174 2.62718,7.93584 2.33997,0.87926 2.92536,4.15213 4.52168,5.79828 -1.14534,2.97787 6.66328,16.78773 7.70038,7.47908 0.29279,-1.5431 -0.36218,-3.2126 -0.23486,-4.7828 0.2782,-3.43089 1.11681,-6.78447 1.33343,-10.10999 0.15954,-2.44928 0.96726,-4.50933 1.18617,-6.91177 0.21016,-2.30658 -0.16356,-4.95342 -0.23413,-7.39895 -20.27185,-14.6182 -20.26833,-22.29151 -26.79935,-23.97092 z"
       sodipodi:nodetypes="csssccccccccccssscc"
       inkscape:label="mustache" /><path
       id="path24"
       style="display:inline;fill:none;fill-opacity:1;stroke:#000000;stroke-width:10;stroke-linecap:butt;stroke-dasharray:none;stroke-opacity:1"
       inkscape:label="body stroke"
       d="m 213.80078,254.07812 -0.16797,315.33008 h -56.41165 a 17.602022,17.602022 135 0 0 -17.60202,17.60202 v 33.76471 a 17.602022,17.602022 45 0 0 17.60202,17.60202 h 364.38385 a 17.602022,17.602022 135 0 0 17.60202,-17.60202 V 587.01022 A 17.602022,17.602022 45 0 0 521.60501,569.4082 h -56.4136 V 254.07031 Z"
       sodipodi:nodetypes="ccccccccc"
       inkscape:original-d="m 213.80078,254.07812 -0.16797,315.33008 h -74.01367 v 68.96875 H 539.20703 V 569.4082 H 465.19141 V 254.07031 Z"
       inkscape:path-effect="#path-effect24"
       transform="rotate(45,402.46143,376.92675)"
       sodipodi:insensitive="true" /></g><style
     id="style1">&#10;		.s0 { fill: #020202 } &#10;	</style></svg>
